<svg width="41" height="32" viewBox="0 0 41 32" fill="none" xmlns="http://www.w3.org/2000/svg">
<path d="M33.0625 30C33.5625 30 34.0625 30.5 34 31C34 31.5625 33.5 32 33 32H7C6.4375 32 6 31.5625 6 31C6 30.5 6.4375 30 7 30H18.9375V7.875C17.25 7.4375 16 5.875 16 4H7C6.4375 4 6 3.5625 6 3C6 2.5 6.4375 2 7 2H16.625C16.625 2 16.875 1.3125 17.8125 0.6875C18.4375 0.25 19.1875 0 20.0625 0C20.875 0 21.625 0.25 22.1875 0.6875C23.125 1.3125 23.375 2 23.4375 2.0625H33C33.5 2.0625 34 2.5 34 3.0625C34 3.5625 33.5 4.0625 33 4.0625H24C24 5.875 22.75 7.4375 21.0625 7.875V30H33.0625ZM18 4C18 5.125 18.9375 6 20.0625 6C21.125 6 22 5.125 22 4C22 2.9375 21.0625 2 20 2C18.875 2 18 2.9375 18 4ZM39.6875 17.5C39.9375 17.8125 40.0625 18.25 40 18.6875C39.6875 22.8125 36.25 26 32.0625 26C27.8125 26 24.375 22.8125 24.0625 18.625C24 18.1875 24.125 17.75 24.375 17.4375L31.1875 6.5C31.375 6.1875 31.6875 6 32.0625 6C32.375 6 32.6875 6.1875 32.875 6.5L39.6875 17.5ZM32.0625 24C34.625 24 36.875 22.375 37.6875 20H26.375C27.1875 22.3125 29.4375 24 32.0625 24ZM26.375 18H37.75L32.0625 8.9375L26.375 18ZM16 18.6875C15.6875 22.8125 12.25 26 8 26C3.8125 26 0.375 22.8125 0.0625 18.6875C0 18.25 0.125 17.8125 0.375 17.5L7.1875 6.5C7.375 6.1875 7.6875 6 8 6C8.375 6 8.6875 6.1875 8.875 6.5L15.6875 17.5C15.9375 17.8125 16.0625 18.25 16 18.6875ZM8 8.9375L2.375 18H13.6875L8 8.9375ZM2.375 20C3.1875 22.3125 5.4375 24 8 24C10.625 24 12.8125 22.375 13.6875 20H2.375Z" fill="#33AB5F"/>
</svg>
