<svg width="40" height="28" viewBox="0 0 40 28" fill="none" xmlns="http://www.w3.org/2000/svg">
<path d="M38.5625 6.5625C39.4375 6.875 40 7.5 40 8.5C40 9.4375 39.4375 10.1875 38.5625 10.5L20.6875 16.875C20.4375 17 20.1875 17 19.9375 17C19.75 17 19.5 17 19.25 16.875L5 11.75V18L6.9375 26.8125C7 27.125 6.9375 27.4375 6.75 27.625C6.5625 27.875 6.25 28 5.9375 28H2C1.6875 28 1.375 27.875 1.1875 27.6875C1 27.4375 0.9375 27.125 1 26.8125L3 18.125V11.0625L1.375 10.4375C0.5 10.125 0 9.3125 0 8.5C0 7.625 0.5 6.875 1.375 6.5625L19.25 0.125C19.6875 0 20.25 0 20.6875 0.125L38.5625 6.5625ZM3.25 26H4.75L4 22.6875L3.25 26ZM19.9375 15L38 8.5L20 2.0625L2 8.5L4.9375 9.625L19.6875 5.0625C20.1875 4.9375 20.75 5.1875 20.9375 5.75C21.0625 6.25 20.8125 6.8125 20.25 7L8.0625 10.75L19.9375 15ZM30.125 16.0625C30.6875 15.9375 31.1875 16.375 31.25 16.875L31.9375 22.3125C32.125 23.75 31.3125 25.125 29.875 25.8125C26.875 27.1875 23.5 27.9375 20.125 28H19.875C16.4375 27.9375 13.0625 27.1875 10.0625 25.8125C8.625 25.125 7.8125 23.75 8 22.3125L8.6875 16.875C8.75 16.375 9.25 15.9375 9.8125 16.0625C10.375 16.125 10.75 16.625 10.6875 17.1875L10 22.5625C9.875 23.125 10.25 23.6875 10.875 24C13.625 25.25 16.75 25.9375 19.875 26H20.0625C23.1875 25.9375 26.3125 25.25 29.0625 24C29.6875 23.6875 30.0625 23.125 29.9375 22.5625L29.25 17.1875C29.1875 16.625 29.5625 16.125 30.125 16.0625Z" fill="#33AB5F"/>
</svg>
