<svg width="32" height="32" viewBox="0 0 32 32" fill="none" xmlns="http://www.w3.org/2000/svg">
<path d="M16 23C18.6875 23 20.5625 21.6875 21.6875 20.375C22.0625 19.9375 22.6875 19.9375 23.125 20.25C23.5625 20.625 23.5625 21.25 23.25 21.6875C21.8125 23.3125 19.4375 25 16 25C12.5 25 10.125 23.3125 8.6875 21.6875C8.375 21.25 8.375 20.625 8.8125 20.25C9.25 19.9375 9.875 19.9375 10.25 20.375C11.375 21.6875 13.25 23 16 23ZM12.5 13C12.5 13.875 11.8125 14.5 11 14.5C10.1875 14.5 9.5 13.875 9.5 13C9.5 12.1875 10.1875 11.5 11 11.5C11.8125 11.5 12.5 12.1875 12.5 13ZM19.5 13C19.5 12.1875 20.1875 11.5 21 11.5C21.8125 11.5 22.5 12.1875 22.5 13C22.5 13.875 21.8125 14.5 21 14.5C20.1875 14.5 19.5 13.875 19.5 13ZM32 16C32 24.875 24.8125 32 16 32C7.125 32 0 24.875 0 16C0 7.1875 7.125 0 16 0C24.8125 0 32 7.1875 32 16ZM16 2C8.25 2 2 8.3125 2 16C2 23.75 8.25 30 16 30C23.6875 30 30 23.75 30 16C30 8.3125 23.6875 2 16 2Z" fill="#33AB5F"/>
</svg>
