<svg width="64" height="64" viewBox="0 0 64 64" fill="none" xmlns="http://www.w3.org/2000/svg">
<path fill-rule="evenodd" clip-rule="evenodd" d="M62.9333 2.42353L62.4 9.295C62.3578 9.87378 61.9818 10.3747 61.4379 10.5769C60.8939 10.7791 60.282 10.6454 59.872 10.2347L58.3253 8.687L48.0405 18.9857C46.3726 20.6499 43.6722 20.6499 42.0043 18.9857L37.2438 14.223C36.8272 13.8066 36.152 13.8066 35.7355 14.223L20.0864 29.8785C19.2861 30.6796 18.2002 31.1298 17.0677 31.1298C15.9353 31.1298 14.8494 30.6796 14.0491 29.8785L11.4219 27.2502C11.0055 26.8345 10.3311 26.8345 9.91468 27.2502L4.70615 32.4502C3.87146 33.271 2.53284 33.271 1.69815 32.4502C1.29442 32.0537 1.06699 31.5115 1.06699 30.9457C1.06699 30.3798 1.29442 29.8376 1.69815 29.4411L7.65015 23.4763C8.4504 22.6755 9.53613 22.2255 10.6683 22.2255C11.8004 22.2255 12.8862 22.6755 13.6864 23.4763L17.0667 26.8587L33.472 10.4523C34.2723 9.65148 35.358 9.20151 36.4902 9.20151C37.6223 9.20151 38.708 9.65148 39.5083 10.4523L44.2667 15.2097C44.4668 15.41 44.7382 15.5225 45.0214 15.5225C45.3045 15.5225 45.5759 15.41 45.776 15.2097L55.3141 5.66726L53.7675 4.1206C53.3584 3.71171 53.2256 3.10173 53.4276 2.55978C53.6296 2.01783 54.1293 1.6436 54.7061 1.6022L61.5862 1.06566C61.9521 1.04187 62.3105 1.17766 62.5688 1.438C62.8271 1.69835 62.96 2.05776 62.9333 2.42353Z" fill="#93DFAF"/>
<path d="M17.0667 58.6656H4.26666C3.08846 58.6656 2.13333 59.6208 2.13333 60.799C2.13333 61.9772 3.08846 62.9323 4.26666 62.9323H17.0667C18.2449 62.9323 19.2 61.9772 19.2 60.799C19.2 59.6208 18.2449 58.6656 17.0667 58.6656Z" fill="white"/>
<path fill-rule="evenodd" clip-rule="evenodd" d="M40.5333 56.5323C40.5333 55.3541 39.5782 54.399 38.4 54.399C39.5782 54.399 40.5333 53.4439 40.5333 52.2657C40.5333 51.0875 39.5782 50.1323 38.4 50.1323H25.6C24.4218 50.1323 23.4667 51.0875 23.4667 52.2657C23.4667 53.4439 24.4218 54.399 25.6 54.399C24.4218 54.399 23.4667 55.3541 23.4667 56.5323C23.4667 57.7105 24.4218 58.6657 25.6 58.6657C24.4218 58.6657 23.4667 59.6208 23.4667 60.799C23.4667 61.9772 24.4218 62.9323 25.6 62.9323H38.4C39.5782 62.9323 40.5333 61.9772 40.5333 60.799C40.5333 59.6208 39.5782 58.6657 38.4 58.6657C39.5782 58.6657 40.5333 57.7105 40.5333 56.5323Z" fill="white"/>
<path d="M32 50.1323C37.3019 50.1323 41.6 45.8342 41.6 40.5323C41.6 35.2303 37.3019 30.9323 32 30.9323C26.6981 30.9323 22.4 35.2303 22.4 40.5323C22.4 45.8342 26.6981 50.1323 32 50.1323Z" fill="white"/>
<path fill-rule="evenodd" clip-rule="evenodd" d="M61.8667 47.999C61.8667 46.8208 60.9115 45.8657 59.7333 45.8657C60.9115 45.8657 61.8667 44.9105 61.8667 43.7323C61.8667 42.5541 60.9115 41.599 59.7333 41.599H46.9333C45.7551 41.599 44.8 42.5541 44.8 43.7323C44.8 44.9105 45.7551 45.8657 46.9333 45.8657C45.7551 45.8657 44.8 46.8208 44.8 47.999C44.8 49.1772 45.7551 50.1323 46.9333 50.1323C45.7551 50.1323 44.8 51.0875 44.8 52.2657C44.8 53.4439 45.7551 54.399 46.9333 54.399C45.7551 54.399 44.8 55.3541 44.8 56.5323C44.8 57.7105 45.7551 58.6657 46.9333 58.6657C45.7551 58.6657 44.8 59.6208 44.8 60.799C44.8 61.9772 45.7551 62.9323 46.9333 62.9323H59.7333C60.9115 62.9323 61.8667 61.9772 61.8667 60.799C61.8667 59.6208 60.9115 58.6657 59.7333 58.6657C60.9115 58.6657 61.8667 57.7105 61.8667 56.5323C61.8667 55.3541 60.9115 54.399 59.7333 54.399C60.9115 54.399 61.8667 53.4439 61.8667 52.2657C61.8667 51.0875 60.9115 50.1323 59.7333 50.1323C60.9115 50.1323 61.8667 49.1772 61.8667 47.999Z" fill="white"/>
<path d="M53.3333 41.5989C58.6353 41.5989 62.9333 37.3009 62.9333 31.9989C62.9333 26.697 58.6353 22.3989 53.3333 22.3989C48.0314 22.3989 43.7333 26.697 43.7333 31.9989C43.7333 37.3009 48.0314 41.5989 53.3333 41.5989Z" fill="white"/>
<path d="M57.0581 27.1985H50.4V28.5301H53.0632C53.9313 28.5301 54.6717 29.0867 54.9466 29.8617H50.4V31.1933H54.9466C54.6717 31.9683 53.9313 32.525 53.0632 32.525H50.4V33.8566H50.8691L55.4124 36.7985L56.1361 35.6808L53.3055 33.8479C54.8045 33.7396 56.0317 32.6342 56.3253 31.1934H57.0581V29.8618H56.3253C56.2251 29.3701 56.0163 28.9174 55.7249 28.5302H57.0581V27.1985Z" fill="#33AB5F"/>
<path d="M35.6581 35.9989H29V37.3305H31.6632C32.5313 37.3305 33.2717 37.8871 33.5466 38.6621H29V39.9938H33.5466C33.2717 40.7688 32.5313 41.3254 31.6632 41.3254H29V42.657H29.4691L34.0124 45.5989L34.7361 44.4812L31.9055 42.6483C33.4046 42.54 34.6317 41.4346 34.9254 39.9938H35.6581V38.6622H34.9254C34.8251 38.1705 34.6163 37.7178 34.3249 37.3306H35.6581V35.9989Z" fill="#33AB5F"/>
<path d="M10.6667 58.6656C15.9686 58.6656 20.2667 54.3675 20.2667 49.0656C20.2667 43.7636 15.9686 39.4656 10.6667 39.4656C5.36475 39.4656 1.06668 43.7636 1.06668 49.0656C1.06668 54.3675 5.36475 58.6656 10.6667 58.6656Z" fill="white"/>
<path fill-rule="evenodd" clip-rule="evenodd" d="M3.94667 40.785L5.29173 42.4416C3.30347 44.0678 2.14523 46.497 2.13333 49.0656H0C0.0132242 45.8546 1.46075 42.8175 3.94667 40.785Z" fill="white"/>
<path d="M3.20001 34.1323C4.04883 34.1337 4.86329 33.7971 5.46347 33.1968C5.54667 33.1136 10.6667 28.0032 10.6667 28.0032L13.2939 30.6326C14.2942 31.6337 15.6514 32.1962 17.0667 32.1962C18.4819 32.1962 19.8392 31.6337 20.8395 30.6326L36.4896 14.9771L41.2491 19.7387C43.3341 21.8202 46.7108 21.8202 48.7957 19.7387L58.3232 10.1984L59.1147 10.9899C59.8195 11.694 60.8699 11.9233 61.804 11.5768C62.7382 11.2303 63.385 10.3716 63.4603 9.37816L63.9936 2.50776V2.49709C64.0398 1.82351 63.7925 1.16284 63.3153 0.685225C62.8381 0.207606 62.1776 -0.0402958 61.504 0.00535475L54.6272 0.538688C53.634 0.609719 52.7738 1.25409 52.4264 2.18723C52.079 3.12036 52.3084 4.17041 53.0133 4.87362L53.8048 5.66722L45.0208 14.4555L40.2624 9.69389C39.2621 8.69274 37.9049 8.13023 36.4896 8.13023C35.0743 8.13023 33.7171 8.69274 32.7168 9.69389L17.0667 25.3504L14.4416 22.719C12.3569 20.6369 8.97968 20.6369 6.89494 22.719L0.948274 28.6816C0.0343776 29.5935 -0.240122 30.9662 0.252807 32.1594C0.745736 33.3526 1.90899 34.1313 3.20001 34.1323ZM2.45334 30.1856L8.40427 24.2219C9.00449 23.621 9.81896 23.2834 10.6683 23.2834C11.5176 23.2834 12.3321 23.621 12.9323 24.2219L16.3125 27.6043C16.5126 27.8046 16.7841 27.9171 17.0672 27.9171C17.3503 27.9171 17.6218 27.8046 17.8219 27.6043L34.2251 11.199C35.492 9.9883 37.4872 9.9883 38.7541 11.199L43.5136 15.9606C44.3579 16.7669 45.6869 16.7669 46.5312 15.9606L56.0683 6.41816C56.484 6.00174 56.484 5.32737 56.0683 4.91096L54.5184 3.36109C54.4012 3.25232 54.3642 3.08205 54.4256 2.93442C54.4794 2.7776 54.6237 2.66968 54.7893 2.66242L61.6619 2.13229C61.7156 2.12987 61.7678 2.15088 61.8048 2.18989C61.847 2.23036 61.8696 2.28719 61.8667 2.34562L61.3333 9.21496C61.3217 9.37768 61.2162 9.51866 61.0634 9.57579C60.9106 9.63292 60.7385 9.59571 60.6229 9.48055L59.0773 7.93282C58.6538 7.53255 57.9915 7.53255 57.568 7.93282L47.2864 18.2294C46.0185 19.4366 44.0263 19.4366 42.7584 18.2294L37.9989 13.4678C37.5997 13.0658 37.0562 12.8403 36.4896 12.8416C35.924 12.841 35.3815 13.0659 34.9824 13.4667L19.3323 29.1243C18.0651 30.3344 16.0704 30.3344 14.8032 29.1243L12.176 26.495C11.3431 25.6629 9.99349 25.6629 9.16054 26.495L3.95201 31.695C3.53408 32.1039 2.86594 32.1039 2.44801 31.695C2.24625 31.4989 2.13241 31.2296 2.13241 30.9483C2.13241 30.667 2.24625 30.3977 2.44801 30.2016L2.45334 30.1856Z" fill="#33AB5F"/>
<path d="M42.6667 40.5323C42.676 35.5095 39.1801 31.1607 34.2726 30.0906C29.3652 29.0204 24.3761 31.5189 22.2935 36.0895C20.2109 40.6602 21.5991 46.0645 25.6267 49.0656H25.6C24.3353 49.06 23.1871 49.8029 22.6739 50.9588C22.1607 52.1146 22.3797 53.4646 23.232 54.3989C22.1226 55.6048 22.1226 57.4597 23.232 58.6656C22.3797 59.5999 22.1607 60.9499 22.6739 62.1058C23.1871 63.2616 24.3353 64.0045 25.6 63.9989H38.4C39.6646 64.0045 40.8129 63.2616 41.3261 62.1058C41.8393 60.9499 41.6203 59.5999 40.768 58.6656C41.8774 57.4597 41.8774 55.6048 40.768 54.3989C41.6203 53.4646 41.8393 52.1146 41.3261 50.9588C40.8129 49.8029 39.6646 49.06 38.4 49.0656H38.3733C41.0717 47.0587 42.6634 43.8951 42.6667 40.5323ZM39.4667 56.5323C39.4667 57.1214 38.9891 57.5989 38.4 57.5989H25.6C25.0109 57.5989 24.5333 57.1214 24.5333 56.5323C24.5333 55.9432 25.0109 55.4656 25.6 55.4656H38.4C38.9891 55.4656 39.4667 55.9432 39.4667 56.5323ZM38.4 61.8656H25.6C25.0109 61.8656 24.5333 61.388 24.5333 60.7989C24.5333 60.2098 25.0109 59.7323 25.6 59.7323H38.4C38.9891 59.7323 39.4667 60.2098 39.4667 60.7989C39.4667 61.388 38.9891 61.8656 38.4 61.8656ZM38.4 51.1989C38.9891 51.1989 39.4667 51.6765 39.4667 52.2656C39.4667 52.8547 38.9891 53.3323 38.4 53.3323H25.6C25.0109 53.3323 24.5333 52.8547 24.5333 52.2656C24.5333 51.6765 25.0109 51.1989 25.6 51.1989H38.4ZM23.4667 40.5323C23.4667 35.8194 27.2872 31.9989 32 31.9989C36.7128 31.9989 40.5333 35.8194 40.5333 40.5323C40.5333 45.2451 36.7128 49.0656 32 49.0656C27.2894 49.0603 23.4719 45.2429 23.4667 40.5323Z" fill="#33AB5F"/>
<path d="M53.3333 21.3323C48.7383 21.3272 44.6577 24.2687 43.2101 28.6297C41.7625 32.9908 43.274 37.7886 46.96 40.5323H46.9333C45.6687 40.5267 44.5204 41.2696 44.0072 42.4255C43.494 43.5813 43.713 44.9313 44.5653 45.8656C43.4559 47.0715 43.4559 48.9264 44.5653 50.1323C43.4559 51.3382 43.4559 53.1931 44.5653 54.399C43.4559 55.6048 43.4559 57.4597 44.5653 58.6656C43.713 59.5999 43.494 60.9499 44.0072 62.1058C44.5204 63.2616 45.6687 64.0046 46.9333 63.999H59.7333C60.998 64.0046 62.1462 63.2616 62.6594 62.1058C63.1726 60.9499 62.9536 59.5999 62.1013 58.6656C63.2107 57.4597 63.2107 55.6048 62.1013 54.399C63.2107 53.1931 63.2107 51.3382 62.1013 50.1323C63.2107 48.9264 63.2107 47.0715 62.1013 45.8656C62.9536 44.9313 63.1726 43.5813 62.6594 42.4255C62.1462 41.2696 60.998 40.5267 59.7333 40.5323H59.7056C63.3928 37.7894 64.9054 32.9911 63.4578 28.6295C62.0103 24.2679 57.9289 21.3262 53.3333 21.3323ZM60.8 47.999C60.8 48.5881 60.3224 49.0656 59.7333 49.0656H46.9333C46.3442 49.0656 45.8667 48.5881 45.8667 47.999C45.8667 47.4099 46.3442 46.9323 46.9333 46.9323H59.7333C60.3224 46.9323 60.8 47.4099 60.8 47.999ZM60.8 52.2656C60.8 52.8547 60.3224 53.3323 59.7333 53.3323H46.9333C46.3442 53.3323 45.8667 52.8547 45.8667 52.2656C45.8667 51.6765 46.3442 51.199 46.9333 51.199H59.7333C60.3224 51.199 60.8 51.6765 60.8 52.2656ZM60.8 56.5323C60.8 57.1214 60.3224 57.5989 59.7333 57.5989H46.9333C46.3442 57.5989 45.8667 57.1214 45.8667 56.5323C45.8667 55.9432 46.3442 55.4656 46.9333 55.4656H59.7333C60.3224 55.4656 60.8 55.9432 60.8 56.5323ZM59.7333 61.8656H46.9333C46.3442 61.8656 45.8667 61.3881 45.8667 60.799C45.8667 60.2099 46.3442 59.7323 46.9333 59.7323H59.7333C60.3224 59.7323 60.8 60.2099 60.8 60.799C60.8 61.3881 60.3224 61.8656 59.7333 61.8656ZM59.7333 42.6656C60.3224 42.6656 60.8 43.1432 60.8 43.7323C60.8 44.3214 60.3224 44.799 59.7333 44.799H46.9333C46.3442 44.799 45.8667 44.3214 45.8667 43.7323C45.8667 43.1432 46.3442 42.6656 46.9333 42.6656H59.7333ZM53.3333 40.5323C48.6205 40.5323 44.8 36.7118 44.8 31.999C44.8 27.2861 48.6205 23.4656 53.3333 23.4656C58.0462 23.4656 61.8667 27.2861 61.8667 31.999C61.8614 36.7096 58.044 40.527 53.3333 40.5323Z" fill="#33AB5F"/>
<path fill-rule="evenodd" clip-rule="evenodd" d="M2.0128 45.9872C1.42369 45.9905 0.943503 45.5155 0.940263 44.9264C0.937023 44.3373 1.41196 43.8571 2.00106 43.8539H2.0128C2.6019 43.8539 3.07946 44.3314 3.07946 44.9205C3.07946 45.5097 2.6019 45.9872 2.0128 45.9872Z" fill="#33AB5F"/>
<path d="M4.29333 57.5989H4.26667C2.49936 57.5989 1.06667 59.0316 1.06667 60.7989C1.06667 62.5662 2.49936 63.9989 4.26667 63.9989H17.0667C18.834 63.9989 20.2667 62.5662 20.2667 60.7989C20.2667 59.0316 18.834 57.5989 17.0667 57.5989H17.04C20.726 54.8552 22.2375 50.0574 20.7899 45.6964C19.3423 41.3354 15.2617 38.3938 10.6667 38.3989C8.22098 38.4098 5.85152 39.2511 3.94667 40.7851C3.70999 40.9636 3.56159 41.2354 3.53934 41.531C3.51708 41.8267 3.62312 42.1176 3.8304 42.3296C4.22244 42.7253 4.84639 42.7708 5.29173 42.4363C6.81658 41.2122 8.71128 40.541 10.6667 40.5323C15.3795 40.5323 19.2 44.3528 19.2 49.0656C19.2 53.7784 15.3795 57.5989 10.6667 57.5989C5.95384 57.5989 2.13333 53.7784 2.13333 49.0656C2.13333 48.4765 1.65577 47.9989 1.06667 47.9989C0.477563 47.9989 0 48.4765 0 49.0656C0.00325178 52.4284 1.59496 55.5921 4.29333 57.5989ZM17.0667 59.7323C17.6558 59.7323 18.1333 60.2098 18.1333 60.7989C18.1333 61.388 17.6558 61.8656 17.0667 61.8656H4.26667C3.67756 61.8656 3.2 61.388 3.2 60.7989C3.2 60.2098 3.67756 59.7323 4.26667 59.7323H17.0667Z" fill="#33AB5F"/>
<path d="M13.8581 44.7985H7.20001V46.1301H9.86325C10.7313 46.1301 11.4718 46.6867 11.7466 47.4617H7.20001V48.7933H11.7466C11.4718 49.5683 10.7313 50.1249 9.86325 50.1249H7.20001V51.4566H7.6691L12.2124 54.3985L12.9361 53.2808L10.1055 51.4479C11.6046 51.3396 12.8317 50.2341 13.1254 48.7934H13.8581V47.4618H13.1254C13.0251 46.9701 12.8163 46.5174 12.5249 46.1302H13.8581V44.7985Z" fill="#33AB5F"/>
</svg>
