<svg width="64" height="64" viewBox="0 0 64 64" fill="none" xmlns="http://www.w3.org/2000/svg">
<g clip-path="url(#clip0_2001_2066)">
<path d="M35.489 61.4534L32.7104 62.9138C32.2658 63.1475 31.7346 63.1475 31.2899 62.9138L28.5112 61.4534C13.254 53.4341 3.85888 38.6361 3.85888 22.6243V12.8438C3.85888 12.0704 4.43625 11.409 5.20538 11.3279C10.4644 10.773 14.6455 7.00814 15.3119 2.24664C15.4185 1.48476 16.057 0.910889 16.8263 0.910889H47.1743C47.9435 0.910889 48.582 1.48476 48.6886 2.24664C49.355 7.00814 53.5361 10.7731 58.7951 11.3279C59.5643 11.409 60.1416 12.0704 60.1416 12.8438V22.6243C60.1415 38.6361 50.7463 53.4341 35.489 61.4534Z" fill="#93DFAF"/>
<path d="M30.9704 57.5316C24.0518 53.8953 18.297 48.6689 14.3281 42.4176C10.4061 36.2403 8.333 29.22 8.333 22.116V16.5645C8.333 15.7611 8.82087 15.036 9.56787 14.7405C13.6825 13.1124 17.0029 10.0561 18.8188 6.23814C19.1424 5.55777 19.8339 5.12952 20.5872 5.12952H43.4128C44.1661 5.12952 44.8576 5.55789 45.1813 6.23814C46.9973 10.0561 50.3175 13.1124 54.4323 14.7405C55.1793 15.0361 55.6671 15.7613 55.6671 16.5645V22.116C55.6671 29.22 53.5941 36.2403 49.6721 42.4176C45.7033 48.6689 39.9484 53.8953 33.03 57.5316L32.9149 57.5921C32.3423 57.8931 31.6581 57.8931 31.0855 57.5921L30.9704 57.5316Z" fill="white"/>
<path d="M42.4325 40.6569H21.6376C20.5409 40.6569 19.6517 39.7678 19.6517 38.671V25.6299C19.6517 24.5332 20.5409 23.644 21.6376 23.644H42.4325C43.5292 23.644 44.4184 24.5332 44.4184 25.6299V38.671C44.4184 39.7678 43.5292 40.6569 42.4325 40.6569Z" fill="#93DFAF"/>
<path d="M31.1241 33.0922V35.6856C31.1241 36.1886 31.5319 36.5965 32.035 36.5965C32.5381 36.5965 32.9459 36.1887 32.9459 35.6856V33.0922C33.6679 32.7502 34.1685 32.0171 34.1685 31.1652C34.1685 29.987 33.2134 29.0319 32.0351 29.0319C30.8569 29.0319 29.9017 29.987 29.9017 31.1652C29.9016 32.0171 30.4022 32.7502 31.1241 33.0922Z" fill="#33AB5F"/>
<path d="M30.5466 58.3379L30.6616 58.3984C31.0807 58.6186 31.5404 58.7288 32.0001 58.7288C32.4596 58.7288 32.9194 58.6186 33.3382 58.3985L33.4536 58.3379C40.5129 54.6275 46.387 49.2913 50.441 42.9059C54.4558 36.5823 56.5779 29.3934 56.5779 22.1161V16.5646C56.5779 15.3771 55.8671 14.3288 54.7673 13.8936C50.8461 12.342 47.7339 9.48425 46.0037 5.847C45.5332 4.85788 44.5163 4.21863 43.4126 4.21863H20.5874C19.4839 4.21863 18.4669 4.85775 17.9964 5.847C16.2664 9.48425 13.154 12.342 9.23287 13.8936C8.133 14.3288 7.42237 15.3773 7.42237 16.5646V22.1161C7.42237 29.3935 9.5445 36.5824 13.5594 42.9059C17.6132 49.2913 23.4875 54.6276 30.5466 58.3379ZM9.24387 22.1161V16.5646C9.24387 16.1295 9.50262 15.7459 9.903 15.5875C14.2542 13.8658 17.7126 10.6844 19.6413 6.6295C19.8114 6.27163 20.1827 6.04038 20.5872 6.04038H43.4128C43.8172 6.04038 44.1885 6.27163 44.3587 6.6295C46.2875 10.6844 49.746 13.8658 54.0971 15.5876C54.4975 15.746 54.7562 16.1296 54.7562 16.5648V22.1163C54.7562 29.0471 52.7323 35.8984 48.9031 41.9296C45.0195 48.0466 39.384 53.163 32.6064 56.7255L32.491 56.786C32.1836 56.9478 31.8166 56.9476 31.5091 56.786L31.3941 56.7256C24.6162 53.1631 18.9807 48.0468 15.097 41.9296C11.2679 35.8985 9.24387 29.0471 9.24387 22.1161Z" fill="#33AB5F"/>
<path d="M59.334 30.76C58.8434 30.649 58.3556 30.9569 58.2449 31.4477C55.4709 43.7198 47.0224 54.3627 35.0654 60.6473L32.2867 62.1078C32.1074 62.202 31.8931 62.202 31.7137 62.1078L28.9351 60.6473C16.9594 54.3528 8.50662 43.6915 5.74425 31.3973C5.63412 30.9065 5.14662 30.5979 4.656 30.7083C4.16525 30.8185 3.85675 31.3058 3.967 31.7965C6.8465 44.6129 15.6381 55.7163 28.0876 62.2597L30.8662 63.7202C31.2214 63.9067 31.6108 64 32.0002 64C32.3896 64 32.7792 63.9067 33.1342 63.72L35.9129 62.2595C48.3428 55.7264 57.13 44.6423 60.0218 31.8492C60.1325 31.3585 59.8246 30.8709 59.334 30.76Z" fill="#33AB5F"/>
<path d="M58.8906 10.4221C54.027 9.909 50.2027 6.49512 49.5906 2.12037C49.4215 0.9115 48.3826 0 47.1741 0H16.8261C15.6177 0 14.5789 0.9115 14.4097 2.12037C13.7975 6.49525 9.97325 9.909 5.10975 10.4221C3.87737 10.5521 2.948 11.5933 2.948 12.8438V22.6243C2.948 24.0455 3.02162 25.4824 3.16687 26.8951C3.21512 27.3639 3.61062 27.7129 4.07187 27.7129C4.103 27.7129 4.1345 27.7113 4.16612 27.708C4.6665 27.6566 5.0305 27.2093 4.979 26.7089C4.84012 25.3577 4.76962 23.9835 4.76962 22.6243V12.8438C4.76962 12.5331 5.003 12.265 5.30087 12.2336C10.9979 11.6326 15.4854 7.57763 16.2139 2.37275C16.2586 2.05338 16.516 1.82162 16.8261 1.82162H47.174C47.4841 1.82162 47.7417 2.05338 47.7864 2.37275C48.5146 7.57763 53.0023 11.6325 58.6992 12.2336C58.9971 12.265 59.2305 12.5331 59.2305 12.8438V22.6243C59.2305 23.9691 59.1615 25.3291 59.0255 26.6667C58.9746 27.1671 59.3391 27.6141 59.8395 27.665C60.3396 27.7163 60.7869 27.3514 60.8379 26.851C60.9801 25.4525 61.0521 24.0305 61.0521 22.6243V12.8438C61.0522 11.5933 60.123 10.5521 58.8906 10.4221Z" fill="#33AB5F"/>
<path d="M42.4325 41.5677C44.0297 41.5677 45.3293 40.2682 45.3293 38.671V25.6298C45.3293 24.0326 44.0297 22.7331 42.4325 22.7331H40.9349V18.3853C40.9349 13.478 36.9425 9.4856 32.035 9.4856C27.1276 9.4856 23.1351 13.478 23.1351 18.3853V22.7331H21.6376C20.0404 22.7331 18.7409 24.0326 18.7409 25.6298V38.671C18.7409 40.2682 20.0404 41.5677 21.6376 41.5677H42.4325ZM24.9569 18.3855C24.9569 14.4826 28.1321 11.3073 32.0351 11.3073C35.9381 11.3073 39.1134 14.4826 39.1134 18.3855V22.7332H24.9569V18.3855ZM20.5625 38.671V25.6298C20.5625 25.0371 21.0449 24.5547 21.6376 24.5547H42.4325C43.0252 24.5547 43.5076 25.037 43.5076 25.6298V38.671C43.5076 39.2637 43.0252 39.7461 42.4325 39.7461H21.6376C21.0447 39.7461 20.5625 39.2637 20.5625 38.671Z" fill="#33AB5F"/>
</g>
<defs>
<clipPath id="clip0_2001_2066">
<rect width="64" height="64" fill="white"/>
</clipPath>
</defs>
</svg>
