<svg width="64" height="64" viewBox="0 0 64 64" fill="none" xmlns="http://www.w3.org/2000/svg">
<path fill-rule="evenodd" clip-rule="evenodd" d="M1.99969 4.92208V47.8939C1.99969 49.0086 2.91229 49.9213 4.02699 49.9213H7.14539V9.88608C7.14539 8.77138 8.05799 7.85878 9.17269 7.85878H25.7346H39.1747V4.92208C39.1747 3.80738 38.2621 2.89478 37.1474 2.89478H20.5855H4.02699C2.91239 2.89468 1.99969 3.80738 1.99969 4.92208Z" fill="white"/>
<path fill-rule="evenodd" clip-rule="evenodd" d="M7.14539 9.88606V49.9212V52.8612C7.14539 53.9759 8.05799 54.8852 9.17269 54.8852H42.2931C43.4078 54.8852 44.3204 53.9759 44.3204 52.8612C44.3204 43.0444 44.3204 26.445 44.3204 9.88606C44.3204 8.77136 43.4078 7.85876 42.2931 7.85876H39.1747H25.7346H9.17269C8.05809 7.85866 7.14539 8.77136 7.14539 9.88606Z" fill="white"/>
<path fill-rule="evenodd" clip-rule="evenodd" d="M12.2979 18.275V27.4621C12.2979 28.3714 13.0421 29.1156 13.9514 29.1156H22.2593C23.1686 29.1156 23.9128 28.3713 23.9128 27.4621V18.275C23.9128 17.3657 23.1686 16.6215 22.2593 16.6215H13.9514C13.0421 16.6215 12.2979 17.3657 12.2979 18.275Z" fill="#93DFAF"/>
<path fill-rule="evenodd" clip-rule="evenodd" d="M37.1474 2.89465H23.0473C23.9397 4.38655 24.7446 6.05015 25.4518 7.85865H25.7347H39.1748V4.92205C39.1747 3.80735 38.2621 2.89465 37.1474 2.89465Z" fill="white"/>
<path fill-rule="evenodd" clip-rule="evenodd" d="M39.1747 7.85864H25.7346H25.4517C30.7254 21.3698 30.0889 44.9975 19.0701 54.8851H42.2931C43.4078 54.8851 44.3204 53.9758 44.3204 52.8611V51.2311C40.6194 51.642 36.777 50.3622 34.0324 47.4357C30.8365 44.0276 29.9643 39.2724 31.3619 35.1335C31.9849 33.2813 33.0625 31.5536 34.5881 30.1224C37.3091 27.5697 40.8855 26.5021 44.3205 26.8827V9.88604C44.3205 8.77134 43.4079 7.85874 42.2932 7.85874L39.1747 7.85864Z" fill="white"/>
<path fill-rule="evenodd" clip-rule="evenodd" d="M53.4567 51.1672L51.7998 52.4638C51.5371 52.6692 51.49 53.0498 51.6954 53.3125L57.6089 60.873C57.8143 61.1357 58.1949 61.1828 58.4575 60.9774L60.4478 59.4215L61.7679 58.3876C62.0306 58.1822 62.0777 57.8016 61.8723 57.5389L60.4478 55.717L55.9622 49.9785C55.7568 49.7158 55.3729 49.6687 55.1102 49.8741L53.4567 51.1672Z" fill="#93DFAF"/>
<path fill-rule="evenodd" clip-rule="evenodd" d="M31.3619 35.1336C29.9643 39.2725 30.8366 44.0277 34.0324 47.4358C36.777 50.3623 40.6194 51.6421 44.3204 51.2312C46.772 50.9618 49.1596 49.9515 51.1263 48.1902C51.2004 48.1262 51.2745 48.0589 51.3452 47.9915C56.2787 43.3643 56.5279 35.6119 51.9009 30.6782C49.8265 28.4623 47.1189 27.1926 44.3204 26.8828C40.8854 26.5022 37.3091 27.5698 34.588 30.1225C33.0625 31.5537 31.9849 33.2813 31.3619 35.1336ZM37.1474 44.516C34.1334 41.2999 34.295 36.2517 37.5111 33.2376C39.4071 31.4595 41.9429 30.7859 44.3204 31.1934C45.9739 31.4763 47.5499 32.2812 48.7858 33.5979C51.7998 36.814 51.6382 41.8622 48.4255 44.8763C47.2401 45.9876 45.8089 46.6645 44.3204 46.9205C41.7678 47.3583 39.0501 46.5467 37.1474 44.516Z" fill="#93DFAF"/>
<path fill-rule="evenodd" clip-rule="evenodd" d="M37.5111 33.2376C34.295 36.2517 34.1334 41.2999 37.1474 44.516C39.0501 46.5467 41.7677 47.3583 44.3204 46.9205C45.8089 46.6646 47.2401 45.9877 48.4255 44.8763C51.6382 41.8622 51.7998 36.814 48.7858 33.5979C47.5499 32.2811 45.9739 31.4763 44.3204 31.1934C41.9429 30.7859 39.4071 31.4594 37.5111 33.2376Z" fill="white"/>
<path fill-rule="evenodd" clip-rule="evenodd" d="M48.4255 44.8763C51.6382 41.8622 51.7998 36.814 48.7858 33.5979C47.5499 32.2811 45.9739 31.4763 44.3204 31.1934C42.869 30.9442 41.3569 31.0991 39.9661 31.6615C40.9461 32.0825 41.852 32.7055 42.6265 33.5339C42.97 33.8976 43.2731 34.2883 43.5358 34.6991C43.8625 35.2076 44.1218 35.7465 44.3205 36.2988C44.9435 38.0399 44.9401 39.946 44.3205 41.6804C43.9096 42.8355 43.2227 43.9132 42.2663 44.809C41.5288 45.5027 40.6936 46.0281 39.808 46.3851C41.2325 46.998 42.8052 47.1799 44.3206 46.9206C45.8089 46.6645 47.2401 45.9876 48.4255 44.8763Z" fill="white"/>
<path fill-rule="evenodd" clip-rule="evenodd" d="M51.9009 30.6781C49.8265 28.4622 47.1189 27.1925 44.3204 26.8827C42.8218 26.7177 41.2929 26.8254 39.8213 27.2161C41.4142 27.5596 42.9464 28.223 44.3204 29.1997C44.9737 29.6644 45.5934 30.2033 46.1625 30.8095C46.6542 31.3349 47.0886 31.8905 47.4725 32.4698C47.9406 32.7931 48.3818 33.1669 48.7859 33.598C51.7999 36.8141 51.6383 41.8623 48.4256 44.8764C48.2134 45.0751 47.9979 45.2569 47.7723 45.4253C47.1964 46.4019 46.4724 47.3112 45.6069 48.1228C45.1961 48.5067 44.765 48.8603 44.3205 49.1769C43.1014 50.0458 41.7611 50.6621 40.3737 51.0291C41.6702 51.3086 43.0038 51.376 44.3205 51.2312C46.7721 50.9618 49.1597 49.9515 51.1264 48.1902C51.2005 48.1262 51.2746 48.0589 51.3453 47.9915C56.2788 43.3642 56.528 35.6118 51.9009 30.6781Z" fill="#93DFAF"/>
<path fill-rule="evenodd" clip-rule="evenodd" d="M60.4478 55.7169L55.9622 49.9784C55.7568 49.7157 55.3729 49.6686 55.1102 49.874L53.4567 51.1672C53.716 50.9618 54.0999 51.0089 54.3053 51.2716L60.2188 58.8321C60.4209 59.0948 60.3771 59.4753 60.1144 59.6808L60.4478 59.4215L61.7679 58.3876C62.0306 58.1822 62.0777 57.8016 61.8723 57.5389L60.4478 55.7169Z" fill="#93DFAF"/>
<path d="M13.951 30.1157H22.2597C23.7226 30.1157 24.913 28.9253 24.913 27.4619V18.2748C24.913 16.8119 23.7226 15.6215 22.2597 15.6215H13.951C12.4881 15.6215 11.2977 16.8119 11.2977 18.2748V27.4619C11.2977 28.9253 12.4881 30.1157 13.951 30.1157ZM13.2977 18.2748C13.2977 17.9208 13.5965 17.6215 13.951 17.6215H22.2597C22.6142 17.6215 22.913 17.9208 22.913 18.2748V27.4619C22.913 27.8164 22.6142 28.1157 22.2597 28.1157H13.951C13.5965 28.1157 13.2977 27.8164 13.2977 27.4619V18.2748Z" fill="#33AB5F"/>
<path d="M28.3447 18.0795H39.4776C40.0303 18.0795 40.4776 17.6317 40.4776 17.0795C40.4776 16.5273 40.0303 16.0795 39.4776 16.0795H28.3447C27.792 16.0795 27.3447 16.5273 27.3447 17.0795C27.3447 17.6317 27.792 18.0795 28.3447 18.0795Z" fill="#33AB5F"/>
<path d="M28.3447 24.0975H39.4776C40.0303 24.0975 40.4776 23.6497 40.4776 23.0975C40.4776 22.5453 40.0303 22.0975 39.4776 22.0975H28.3447C27.792 22.0975 27.3447 22.5453 27.3447 23.0975C27.3447 23.6497 27.792 24.0975 28.3447 24.0975Z" fill="#33AB5F"/>
<path d="M48.3009 37.8638C47.6759 34.9971 44.8331 33.1753 41.9659 33.7998C41.4259 33.9175 41.0841 34.4502 41.2012 34.9898C41.3194 35.5289 41.8535 35.8697 42.3916 35.754C44.1914 35.3644 45.9571 36.5025 46.3477 38.2906C46.4493 38.7584 46.8633 39.0777 47.3233 39.0772C47.3936 39.0772 47.4659 39.0699 47.5372 39.0543C48.0773 38.9366 48.4191 38.4034 48.3009 37.8638Z" fill="#33AB5F"/>
<path d="M49.5158 32.914C46.1281 29.3041 40.4366 29.1225 36.8272 32.5082C33.2149 35.8925 33.0322 41.5864 36.418 45.2002C38.1817 47.0801 40.5723 48.0303 42.9679 48.0303C45.171 48.0303 47.3791 47.2271 49.1105 45.6055C52.7189 42.2192 52.9006 36.5258 49.5158 32.914ZM47.7423 44.1465C44.9337 46.7798 40.5088 46.6372 37.877 43.8325C35.2451 41.0234 35.3877 36.5981 38.1944 33.9672C39.5382 32.706 41.254 32.0819 42.9659 32.0819C44.8272 32.0819 46.6857 32.8207 48.0568 34.2816C50.6877 37.0893 50.5461 41.5151 47.7423 44.1465Z" fill="#33AB5F"/>
<path d="M62.6604 56.9231L56.7502 49.3635C56.4865 49.0256 56.1066 48.8108 55.6799 48.7585C55.2512 48.7063 54.8313 48.8225 54.4943 49.0866L53.6278 49.7645L52.4614 48.2742C54.7668 45.9033 56.0973 42.8116 56.2102 39.4801C56.3202 35.9401 55.0502 32.58 52.6302 29.99C50.6002 27.84 48.0302 26.51 45.3201 26.0299C45.3186 26.0297 45.3172 26.0295 45.3157 26.0293L45.3201 9.88975C45.3201 8.21965 43.9601 6.85965 42.29 6.85965H40.1748V4.92205C40.1748 3.25265 38.8164 1.89465 37.1474 1.89465H4.02709C2.35809 1.89465 0.999695 3.25255 0.999695 4.92205V47.8937C0.999695 49.5631 2.35809 50.9211 4.02709 50.9211H6.14979V52.8602C6.14979 54.5302 7.49979 55.8802 9.1698 55.8802H42.2901C43.9602 55.8802 45.3202 54.5302 45.3202 52.8602V52.1002C47.3646 51.7389 49.2901 50.885 50.9669 49.6084L52.0533 50.9964L51.1839 51.6765C50.4876 52.2209 50.3626 53.2307 50.9075 53.929L56.8216 61.4901C57.138 61.8934 57.6107 62.1048 58.0882 62.1044C58.4329 62.1044 58.7816 61.9936 59.0736 61.765L62.3832 59.1756C63.0803 58.6311 63.2053 57.6208 62.6604 56.9231ZM4.02709 48.921C3.46069 48.921 2.99969 48.4601 2.99969 47.8936V4.92205C2.99969 4.35565 3.46059 3.89465 4.02709 3.89465H37.1475C37.7139 3.89465 38.1749 4.35555 38.1749 4.92205V6.85965H9.1698C7.49979 6.85965 6.14979 8.21965 6.14979 9.88975V48.921H4.02709ZM43.3201 52.8602C43.3201 53.4302 42.8601 53.8802 42.2901 53.8802H9.1698C8.6098 53.8802 8.1498 53.4302 8.1498 52.8602V9.88975C8.1498 9.31975 8.6098 8.85975 9.1698 8.85975H42.2901C42.8601 8.85975 43.3201 9.31975 43.3201 9.88975L43.325 25.8302C43.3234 25.8302 43.3217 25.8299 43.3201 25.8299C40.5997 25.7492 37.8667 26.5176 35.5175 28.1157H28.3447C27.792 28.1157 27.3447 28.5635 27.3447 29.1157C27.3447 29.668 27.792 30.1157 28.3447 30.1157H33.2022C32.0996 31.3211 31.2613 32.684 30.6841 34.1338H12.2977C11.745 34.1338 11.2977 34.5816 11.2977 35.1338C11.2977 35.686 11.745 36.1338 12.2977 36.1338H30.052C29.7562 37.4523 29.671 38.8079 29.781 40.1519H12.2977C11.745 40.1519 11.2977 40.5997 11.2977 41.1519C11.2977 41.7042 11.745 42.1519 12.2977 42.1519H30.1C30.4344 43.555 30.9984 44.9131 31.7978 46.1695H12.2977C11.745 46.1695 11.2977 46.6173 11.2977 47.1695C11.2977 47.7217 11.745 48.1695 12.2977 48.1695H33.3512C35.7664 50.7174 39.024 52.1809 42.5401 52.3001C42.8005 52.3001 43.0598 52.3238 43.3201 52.3001V52.8602ZM50.6601 47.2601C49.1501 48.6901 47.3101 49.6401 45.3201 50.0601C44.4351 50.2507 43.515 50.3378 42.6101 50.3001C39.6001 50.2001 36.8201 48.9401 34.7601 46.7501C30.52 42.2301 30.75 35.1 35.27 30.85C37.37 28.88 40.09 27.81 42.9601 27.81H43.3301C44.0101 27.83 44.6701 27.91 45.3201 28.06C47.5501 28.53 49.5801 29.66 51.1701 31.36C55.4102 35.89 55.1802 43.0201 50.6601 47.2601ZM58.1526 59.9456L52.7268 53.0085L55.4163 50.9045L60.8412 57.843L58.1526 59.9456Z" fill="#33AB5F"/>
</svg>
