<svg width="64" height="64" viewBox="0 0 64 64" fill="none" xmlns="http://www.w3.org/2000/svg">
<path d="M54.3944 13.6655C49.2567 8.62793 42.705 5.5249 35.6532 4.7251L35.4056 2.96582C35.1679 1.2749 33.7006 0 31.9931 0C30.2855 0 28.8182 1.2749 28.5805 2.96582L28.3329 4.7251C21.2811 5.5249 14.7294 8.62793 9.59169 13.666C3.5829 19.5571 0.176649 27.4297 0.000379415 35.833C-0.00889793 36.2637 0.152235 36.6704 0.453504 36.978C0.754286 37.2852 1.15614 37.4546 1.58583 37.4546C2.36757 37.4546 3.02479 36.896 3.14882 36.1265C3.412 34.4927 5.38563 33.4775 8.29872 33.4775C10.9896 33.4775 12.8822 34.3335 13.3607 35.7671C13.6937 36.7646 14.6141 37.4375 15.6581 37.4531C15.661 37.4531 15.664 37.4536 15.6669 37.4536H15.6683C15.6766 37.4536 15.6854 37.4546 15.6942 37.4546C16.7025 37.4546 17.599 36.8462 17.9774 35.9048C18.6903 34.1309 22.4701 32.3394 28.556 31.8413V55.5625C28.556 56.4243 27.8549 57.125 26.9935 57.125C26.1317 57.125 25.431 56.4243 25.431 55.5625V52.7915C25.431 50.8965 23.889 49.354 21.9935 49.354C20.098 49.354 18.556 50.8965 18.556 52.7915V55.5625C18.556 60.2148 22.3407 64 26.9935 64C31.6459 64 35.431 60.2148 35.431 55.5625V44.3589C35.431 43.8408 35.0111 43.4214 34.4935 43.4214C33.9755 43.4214 33.556 43.8408 33.556 44.3589V49.354H30.431V31.7319C30.9389 31.7139 31.4589 31.7041 31.9935 31.7041C32.5277 31.7041 33.0482 31.7139 33.556 31.7319V40.8589C33.556 41.377 33.9755 41.7964 34.4935 41.7964C35.0111 41.7964 35.431 41.377 35.431 40.8589V31.8408C41.517 32.3394 45.2968 34.1309 46.0097 35.9043C46.3881 36.8457 47.2841 37.4541 48.2929 37.4541C48.3012 37.4541 48.3099 37.4531 48.3187 37.4531H48.3197C48.3226 37.4531 48.3256 37.4526 48.329 37.4526C49.3729 37.4375 50.2933 36.7642 50.6259 35.7671C51.1044 34.333 52.997 33.4771 55.6879 33.4771C58.6014 33.4771 60.5746 34.4922 60.8378 36.1265C60.9618 36.8955 61.619 37.4541 62.4008 37.4541C62.8304 37.4541 63.2323 37.2847 63.5331 36.978C63.8344 36.6704 63.9955 36.2637 63.9862 35.8325C63.8095 27.4297 60.4032 19.5571 54.3944 13.6655ZM33.5555 51.229V55.5625C33.5555 59.1812 30.6117 62.125 26.9931 62.125C23.3744 62.125 20.4306 59.1812 20.4306 55.5625V52.7915C20.4306 51.9302 21.1312 51.229 21.9931 51.229C22.8544 51.229 23.5556 51.9302 23.5556 52.7915V55.5625C23.5556 57.458 25.0975 59 26.9931 59C28.8886 59 30.4306 57.458 30.4306 55.5625V51.229H33.5555ZM30.4369 3.22705C30.5458 2.45605 31.2147 1.875 31.9931 1.875C32.7714 1.875 33.4403 2.45605 33.5487 3.22705L33.7372 4.56494C33.1581 4.53369 32.577 4.5166 31.9931 4.5166C31.4091 4.5166 30.8275 4.53418 30.2489 4.56494L30.4369 3.22705ZM8.29872 31.6021C4.90565 31.6021 2.91639 32.7598 1.95839 34.1777C2.97841 21.0913 12.5316 10.2637 24.9525 7.23682C22.9745 8.85498 21.1674 11.1694 19.619 14.1157C16.7362 19.6006 15.038 26.7217 14.7684 34.3574C13.7313 32.5952 11.4335 31.6021 8.29872 31.6021ZM55.6874 31.6021C52.5531 31.6021 50.2543 32.5947 49.2177 34.3579C48.9496 26.7915 47.2777 19.7202 44.4398 14.2549C44.2011 13.7949 43.6351 13.6162 43.1757 13.855C42.7162 14.0933 42.537 14.6597 42.7758 15.1187C45.4911 20.3481 47.0902 27.1484 47.3451 34.4492C45.4403 31.6172 39.5956 29.8291 31.9931 29.8291C24.3905 29.8291 18.5458 31.6177 16.6415 34.4492C16.8978 27.0815 18.5209 20.2349 21.2787 14.9878C24.1923 9.44434 27.9974 6.3916 31.9931 6.3916C35.2958 6.3916 38.4618 8.46436 41.1483 12.3862C41.4408 12.8135 42.0243 12.9224 42.4515 12.6299C42.8788 12.3369 42.9877 11.7534 42.6952 11.3262C41.559 9.66748 40.3324 8.30029 39.037 7.2373C51.4564 10.2651 61.0077 21.0923 62.0277 34.1777C61.0697 32.7598 59.0804 31.6021 55.6874 31.6021Z" fill="#33AB5F"/>
</svg>
