<svg width="64" height="64" viewBox="0 0 64 64" fill="none" xmlns="http://www.w3.org/2000/svg">
<path d="M53.8529 10.1226C45.0042 1.27372 31.6964 -1.37354 20.1349 3.41528C8.57341 8.2041 1.03508 19.4859 1.03508 32C1.03508 44.514 8.57341 55.7958 20.1349 60.5847C31.6964 65.3735 45.0042 62.7262 53.8529 53.8773C65.9275 41.7915 65.9275 22.2084 53.8529 10.1226ZM50.0769 50.1013C40.8109 59.3695 26.0416 60.143 15.8582 51.8933L26.1515 41.6H18.5995L12.0822 48.1173C3.81419 37.9356 4.57886 23.152 13.8532 13.8776C23.1276 4.60329 37.9112 3.83862 48.0929 12.1066L38.8662 21.3333H46.4182L51.8689 15.8826C60.1111 26.0685 59.3379 40.8321 50.0769 50.1013Z" fill="#93DFAF"/>
<path d="M11.7089 24.5333V38.3999C11.7089 40.1673 13.1416 41.5999 14.9089 41.5999H18.5995L12.0822 48.1173C3.81419 37.9356 4.57886 23.152 13.8532 13.8776C23.1276 4.60327 37.9112 3.8386 48.0929 12.1066L38.8662 21.3333H14.9089C13.1416 21.3333 11.7089 22.766 11.7089 24.5333Z" fill="white"/>
<path d="M50.0769 50.1012C40.8109 59.3695 26.0416 60.1429 15.8582 51.8932L26.1515 41.5999H49.0422C50.8095 41.5999 52.2422 40.1672 52.2422 38.3999V24.5332C52.2422 22.7659 50.8095 21.3332 49.0422 21.3332H46.4182L51.8689 15.8826C60.1111 26.0684 59.3379 40.832 50.0769 50.1012Z" fill="white"/>
<path d="M49.0422 21.3333H14.9089C13.1416 21.3333 11.7089 22.7659 11.7089 24.5333V38.3999C11.7089 40.1672 13.1416 41.5999 14.9089 41.5999H49.0422C50.8095 41.5999 52.2422 40.1672 52.2422 38.3999V24.5333C52.2422 22.7659 50.8095 21.3333 49.0422 21.3333Z" fill="white"/>
<path d="M4.05767 47.5955L5.92007 46.5544L6.96647 48.3272C7.35367 48.8936 7.77607 49.4366 8.17713 49.9934L8.7862 50.8232L9.47527 51.5891L10.8555 53.1198L9.34833 54.627L7.86887 52.9918L7.13287 52.1704L6.4822 51.2819C6.05553 50.6856 5.60113 50.1086 5.18727 49.4952L4.05767 47.5955Z" fill="white"/>
<path d="M7.33553 51.7183C6.74643 51.7212 6.26648 51.2461 6.26353 50.657C6.26059 50.0679 6.73576 49.5879 7.32487 49.585H7.33553C7.92464 49.585 8.4022 50.0625 8.4022 50.6516C8.4022 51.2407 7.92464 51.7183 7.33553 51.7183Z" fill="#33AB5F"/>
<path d="M31.9755 -0.000122192C23.484 -0.0236268 15.336 3.35148 9.34833 9.37268C1.91732 16.8689 -1.37578 27.5266 0.531266 37.9081C1.19341 41.3017 2.38332 44.5705 4.05767 47.5956C4.24363 47.9283 4.59296 48.1365 4.97406 48.1418C5.35516 48.1471 5.71013 47.9487 5.90526 47.6213C6.10039 47.2939 6.10603 46.8872 5.92007 46.5545C4.35848 43.7319 3.24782 40.6825 2.62833 37.5167C2.04871 34.3408 1.98029 31.0928 2.42567 27.8953C3.3146 21.459 6.27348 15.4866 10.8555 10.8799C18.401 3.33443 29.3987 0.387595 39.706 3.14942C50.0133 5.91125 58.0642 13.9621 60.826 24.2694C63.5878 34.5767 60.641 45.5744 53.0955 53.1199C47.4944 58.7216 39.8972 61.8687 31.9755 61.8687C24.0539 61.8687 16.4567 58.7216 10.8555 53.1199C10.5877 52.8426 10.1911 52.7314 9.81819 52.829C9.44525 52.9266 9.15401 53.2179 9.05639 53.5908C8.95877 53.9637 9.06998 54.3603 9.34727 54.6281C17.4314 62.7123 29.2142 65.8695 40.2573 62.9105C51.3004 59.9515 59.9261 51.3258 62.8851 40.2827C65.8441 29.2396 62.6868 17.4568 54.6027 9.37268C48.6151 3.35148 40.4671 -0.0236268 31.9755 -0.000122192Z" fill="#33AB5F"/>
<path d="M48.8043 12.9065C49.0466 12.69 49.1769 12.3749 49.1584 12.0505C49.1399 11.7262 48.9746 11.4279 48.7094 11.2404C38.0966 2.69171 22.7459 3.52032 13.1149 13.1617C3.48397 22.803 2.67196 38.1547 11.2321 48.7582C11.4265 49.0175 11.7282 49.1743 12.052 49.1845C12.3759 49.1947 12.6869 49.0571 12.8971 48.8105L19.0411 42.6665H23.5766L15.1499 51.0932C14.9077 51.3097 14.7774 51.6248 14.7959 51.9491C14.8143 52.2735 14.9796 52.5717 15.2449 52.7593C25.8583 61.3007 41.2033 60.4687 50.831 50.8298C60.4587 41.1909 61.2728 25.8449 52.719 15.2414C52.5246 14.9822 52.2229 14.8253 51.899 14.8151C51.5751 14.805 51.2642 14.9426 51.0539 15.1892L45.9766 20.2665H41.4411L48.8043 12.9065ZM49.0422 22.3998C50.2204 22.3998 51.1755 23.3549 51.1755 24.5332V38.3998C51.1755 39.578 50.2204 40.5332 49.0422 40.5332H14.9089C13.7307 40.5332 12.7755 39.578 12.7755 38.3998V24.5332C12.7755 23.3549 13.7307 22.3998 14.9089 22.3998H49.0422ZM12.1857 46.5065C5.0115 36.7415 6.04099 23.2014 14.6091 14.6334C23.1771 6.06528 36.7172 5.03579 46.4822 12.21L38.4246 20.2665H14.9089C12.5525 20.2665 10.6422 22.1767 10.6422 24.5332V38.3998C10.6422 40.7562 12.5525 42.6665 14.9089 42.6665H16.0246L12.1857 46.5065ZM51.7654 17.4932C58.9396 27.2582 57.9101 40.7982 49.342 49.3663C40.7739 57.9344 27.2339 58.9639 17.4689 51.7897L26.5931 42.6665H49.0422C51.3986 42.6665 53.3089 40.7562 53.3089 38.3998V24.5332C53.3089 22.1767 51.3986 20.2665 49.0422 20.2665H48.9931L51.7654 17.4932Z" fill="#33AB5F"/>
<path d="M25.5092 25.5999H16.9758C16.3867 25.5999 15.9092 26.0774 15.9092 26.6665C15.9092 27.2556 16.3867 27.7332 16.9758 27.7332H20.1758V36.2665C20.1758 36.8556 20.6534 37.3332 21.2425 37.3332C21.8316 37.3332 22.3092 36.8556 22.3092 36.2665V27.7332H25.5092C26.0983 27.7332 26.5758 27.2556 26.5758 26.6665C26.5758 26.0774 26.0983 25.5999 25.5092 25.5999Z" fill="#33AB5F"/>
<path d="M38.9173 37.1539C39.1527 37.3109 39.4408 37.368 39.7182 37.3126C39.9957 37.2572 40.2398 37.0938 40.3968 36.8584L42.7093 33.3864L45.0218 36.8552C45.2333 37.1723 45.5979 37.3524 45.9783 37.3278C46.3586 37.3032 46.6969 37.0775 46.8657 36.7358C47.0345 36.3941 47.0083 35.9883 46.7968 35.6712L43.9893 31.4664L46.7946 27.2584C47.0061 26.9414 47.0324 26.5355 46.8636 26.1938C46.6948 25.8522 46.3565 25.6265 45.9761 25.6018C45.5958 25.5772 45.2312 25.7574 45.0197 26.0744L42.7093 29.5464L40.3968 26.0776C40.0698 25.5875 39.4074 25.4552 38.9173 25.7821C38.4272 26.1091 38.2949 26.7715 38.6218 27.2616L41.4293 31.4664L38.624 35.6744C38.2965 36.164 38.4278 36.8263 38.9173 37.1539Z" fill="#33AB5F"/>
<path d="M35.8091 32.6666L35.7953 32.6357L32.9505 26.2357C32.7794 25.8503 32.3972 25.6018 31.9755 25.6018C31.5538 25.6018 31.1717 25.8503 31.0006 26.2357L28.1558 32.6357L28.1419 32.6666L26.7339 35.8336C26.4948 36.372 26.7374 37.0024 27.2758 37.2416C27.8142 37.4808 28.4446 37.2382 28.6838 36.6997L29.8241 34.1333H34.127L35.2673 36.6997C35.5064 37.2382 36.1368 37.4808 36.6753 37.2416C37.2137 37.0024 37.4563 36.372 37.2171 35.8336L35.8091 32.6666ZM30.7723 32L31.9755 29.2928L33.1787 32H30.7723Z" fill="#33AB5F"/>
</svg>
