<svg width="64" height="64" viewBox="0 0 64 64" fill="none" xmlns="http://www.w3.org/2000/svg">
<path d="M1.25717 43.8671V55.7867C1.25717 58.6047 3.13491 60.4837 5.45275 60.4837H58.5533C60.8711 60.4837 62.7501 58.6034 62.7488 55.7855L62.7363 12.1922C62.7918 10.519 60.5325 8.3392 58.5396 8.49794H54.6192V11.107C54.6192 12.5772 53.4277 13.7686 51.9576 13.7686C50.4887 13.7686 49.2973 12.5772 49.2973 11.107V8.49794H41.4963V11.107C41.4963 12.5772 40.3049 13.7686 38.8348 13.7686C37.3659 13.7686 36.1732 12.5772 36.1732 11.107V8.49794H28.3735V11.107C28.3735 12.5772 27.1821 13.7686 25.712 13.7686C24.2418 13.7686 23.0504 12.5772 23.0504 11.107V8.49794H15.2502V11.107C15.2502 12.5772 14.0588 13.7686 12.5886 13.7686C11.1185 13.7686 9.92706 12.5772 9.92706 11.107V8.49794H5.45275C3.13491 8.49794 1.25717 10.3769 1.25717 12.1934V32.8666V43.8671Z" fill="white"/>
<path d="M62.7351 12.1921V20.3094H1.25717V12.1934C1.25717 10.3736 3.13491 8.4979 5.45275 8.4979H9.92706V11.107C9.92706 12.5771 11.1185 13.7685 12.5886 13.7685C14.0588 13.7685 15.2502 12.5771 15.2502 11.107V8.4979H23.0499V11.107C23.0499 12.5771 24.2413 13.7685 25.7115 13.7685C27.1816 13.7685 28.373 12.5771 28.373 11.107V8.4979H36.1727V11.107C36.1727 12.5771 37.3654 13.7685 38.8343 13.7685C40.3044 13.7685 41.4958 12.5771 41.4958 11.107V8.4979H49.2968V11.107C49.2968 12.5771 50.4882 13.7685 51.9571 13.7685C53.4272 13.7685 54.6187 12.5771 54.6187 11.107V8.4979H58.5391C60.5366 8.34254 62.7811 10.5075 62.7351 12.1921Z" fill="#93DFAF"/>
<path d="M12.5892 13.7683H12.5882C11.1187 13.7683 9.92755 12.577 9.92755 11.1076V6.1768C9.92755 4.70728 11.1188 3.51611 12.5882 3.51611H12.5892C14.0588 3.51611 15.2499 4.7074 15.2499 6.1768V11.1075C15.2499 12.577 14.0586 13.7683 12.5892 13.7683Z" fill="white"/>
<path d="M25.7122 13.7683H25.7112C24.2417 13.7683 23.0505 12.577 23.0505 11.1076V6.1768C23.0505 4.70728 24.2418 3.51611 25.7112 3.51611H25.7122C27.1817 3.51611 28.3729 4.7074 28.3729 6.1768V11.1075C28.373 12.577 27.1817 13.7683 25.7122 13.7683Z" fill="white"/>
<path d="M38.8353 13.7683C37.3654 13.7689 36.1735 12.5774 36.1735 11.1076V6.1768C36.1735 4.70728 37.3648 3.51611 38.8342 3.51611H38.8352C40.3047 3.51611 41.4958 4.7074 41.4958 6.1768V11.1075C41.496 12.577 40.3047 13.7683 38.8353 13.7683Z" fill="white"/>
<path d="M51.9582 13.7683C50.4883 13.7689 49.2964 12.5774 49.2964 11.1076V6.1768C49.2964 4.70728 50.4877 3.51611 51.9571 3.51611H51.9581C53.4276 3.51611 54.6188 4.7074 54.6188 6.1768V11.1075C54.619 12.577 53.4277 13.7683 51.9582 13.7683Z" fill="white"/>
<path d="M61.3637 8.03633C60.5151 7.52462 59.5313 7.24551 58.5395 7.24789H55.869V6.17671C55.869 4.02036 54.1146 2.26611 51.9572 2.26611C49.8009 2.26611 48.0465 4.02036 48.0465 6.17671V7.24789H42.7459V6.17671C42.7459 4.02036 40.9916 2.26611 38.8342 2.26611C36.6778 2.26611 34.9236 4.02036 34.9236 6.17671V7.24789H29.6229V6.17671C29.6229 4.02036 27.8686 2.26611 25.7112 2.26611C23.5549 2.26611 21.8005 4.02036 21.8005 6.17671V7.24789H16.4999V6.17671C16.4999 4.02036 14.7455 2.26611 12.5881 2.26611C10.4318 2.26611 8.6774 4.02036 8.6774 6.17671V7.24789H5.45263C2.56921 7.26476 0.0337613 9.48786 0.00726318 12.1933V32.8665C0.00726318 33.5568 0.566849 34.1164 1.25718 34.1164C1.9475 34.1164 2.50709 33.5568 2.50709 32.8665V21.5593H61.4891L61.4989 55.786C61.5258 57.6137 60.3895 59.2324 58.5533 59.2336H5.45276C3.7185 59.2336 2.50721 57.8162 2.50721 55.7866V43.8671C2.50721 43.1767 1.94763 42.6171 1.2573 42.6171C0.566974 42.6171 0.00738818 43.1767 0.00738818 43.8671V55.7866C0.00738818 59.1769 2.34835 61.7334 5.45276 61.7334H58.5533C61.7409 61.7652 64.0616 58.9586 63.9988 55.7851L63.9861 12.204C64.0003 10.7148 62.8966 8.96164 61.3637 8.03633ZM51.9582 4.76594C52.7362 4.76594 53.3691 5.39877 53.3691 6.17671V11.1069C53.3785 11.8727 52.7217 12.5289 51.9572 12.5183C51.1915 12.5188 50.5463 11.8904 50.547 11.1069L50.5463 6.17671C50.5463 5.39877 51.1793 4.76594 51.9582 4.76594ZM37.4234 6.17671C37.4234 5.39877 38.0562 4.76594 38.8353 4.76594C39.6132 4.76594 40.2461 5.39877 40.2461 6.17671V11.1075C40.2534 11.8714 39.6065 12.5263 38.8342 12.5183C38.0562 12.5183 37.4234 11.8854 37.4234 11.1075V6.17671ZM24.3003 6.17671C24.3003 5.39877 24.9331 4.76594 25.7122 4.76594C26.4902 4.76594 27.1231 5.39877 27.1231 6.17671V11.1075C27.1231 11.8854 26.4903 12.5183 25.7122 12.5183H25.7112C24.9333 12.5183 24.3003 11.8854 24.3003 11.1075V6.17671ZM11.1774 6.17671C11.1774 5.39877 11.8102 4.76594 12.5893 4.76594C13.3672 4.76594 14.0002 5.39877 14.0002 6.17671V11.1075C14.0002 11.8854 13.3673 12.5183 12.5893 12.5183H12.5883C11.8103 12.5183 11.1774 11.8854 11.1774 11.1075V6.17671ZM61.4852 19.0594H2.50709V12.1933C2.51846 10.8569 4.15897 9.72059 5.45263 9.74784H8.67703V11.107C8.67703 13.2638 10.4318 15.0185 12.5885 15.0185C14.7454 15.0185 16.5 13.2637 16.5 11.107V9.74771H21.7999V11.1069C21.7999 13.2637 23.5546 15.0183 25.7113 15.0183C27.8682 15.0183 29.6228 13.2636 29.6228 11.1069V9.74771H34.9227V11.1069C34.9227 13.2637 36.6774 15.0183 38.8342 15.0183C40.9646 15.0405 42.7685 13.225 42.7456 11.1069V9.74771H48.0461V11.1074C48.0436 13.2805 49.8303 15.025 51.957 15.0183C54.0792 15.0272 55.8733 13.2796 55.8685 11.1069V9.74771H58.5418C59.8888 9.70209 61.3491 10.9048 61.4847 12.192V19.0594H61.4852Z" fill="#33AB5F"/>
<path d="M29.6108 45.2833C29.3892 44.7446 28.87 44.3967 28.2875 44.3967C28.2872 44.3967 28.2865 44.3967 28.2862 44.3967C27.7032 44.3972 27.1839 44.7463 26.9631 45.2858C26.9592 45.2952 26.9555 45.3047 26.9519 45.3143L23.9528 53.1886C23.7071 53.8337 24.031 54.5558 24.676 54.8015C25.3044 55.0459 26.0438 54.7298 26.2889 54.0783L26.7293 52.9223H29.8223L30.2573 54.0748C30.501 54.7206 31.2219 55.0464 31.868 54.8029C32.5139 54.5591 32.8398 53.8379 32.5961 53.1921L29.6243 45.3175C29.6199 45.3059 29.6156 45.2945 29.6108 45.2833ZM27.6813 50.4223L28.2829 48.8429L28.879 50.4223H27.6813Z" fill="#33AB5F"/>
<path d="M46.4746 48.5302C45.538 48.1848 44.6629 47.8094 44.3495 47.6727C44.2627 47.5886 44.2552 47.4827 44.2664 47.4036C44.2948 47.2066 44.4619 47.0481 44.7253 46.9687C45.7281 46.6664 46.674 47.4166 46.6836 47.4243C47.2238 47.9109 48.0848 47.8363 48.5154 47.2443C48.9331 46.7041 48.833 45.9275 48.2921 45.5107C47.5677 44.9017 45.8494 44.0194 44.0042 44.5751C42.8068 44.9359 41.9591 45.8835 41.792 47.0483C41.6242 48.2026 42.1756 49.3583 43.2092 49.9021C43.2557 49.9229 44.363 50.4157 45.6094 50.8756C46.0769 51.0481 46.5554 51.3507 46.496 51.6828C46.4456 51.9654 46.0459 52.3835 45.3485 52.3835C44.6245 52.3835 43.9302 52.0944 43.4913 51.61C43.0279 51.0986 42.2374 51.0597 41.7258 51.5233C41.2144 51.9867 41.1755 52.7773 41.6391 53.2888C42.5574 54.3021 43.9094 54.8833 45.3485 54.8833C47.1536 54.8833 48.6712 53.722 48.957 52.1221C49.1738 50.9083 48.6355 49.3272 46.4746 48.5302Z" fill="#33AB5F"/>
<path d="M36.5883 54.883H36.5914C37.2803 54.883 37.8396 54.3255 37.8413 53.6361L37.8503 49.9258L40.179 46.3485C40.5556 45.7701 40.3919 44.9957 39.8134 44.6191C39.235 44.2426 38.4607 44.4062 38.0841 44.9847L36.5998 47.2648L35.0968 44.963C34.7193 44.3849 33.9447 44.2223 33.3669 44.5998C32.7888 44.9772 32.6263 45.7517 33.0037 46.3297L35.3505 49.9239L35.3415 53.63C35.3398 54.3205 35.898 54.8814 36.5883 54.883Z" fill="#33AB5F"/>
<path d="M15.0123 53.5038C14.9821 54.2195 15.5408 54.9027 16.2831 54.8831C16.3514 54.8829 17.9619 54.8766 18.6065 54.8654C21.1439 54.821 22.9857 52.6275 22.9857 49.6499C22.9857 46.5198 21.1905 44.4167 18.5186 44.4167H16.2624C15.5878 44.4034 14.9947 45.0004 15.0125 45.6749L15.0123 53.5038ZM18.5185 46.9167C20.3438 46.9167 20.4857 49.0088 20.4857 49.65C20.4857 50.9851 19.8911 52.3428 18.5627 52.366C18.3186 52.3703 17.9204 52.3739 17.524 52.3767C17.5212 51.4579 17.516 47.8744 17.5143 46.9167H18.5185Z" fill="#33AB5F"/>
<path d="M37.6904 24.7783C34.8772 24.7783 32.5885 27.067 32.5885 29.8802V35.2903C32.5885 38.1035 34.8772 40.3922 37.6904 40.3922C40.5035 40.3922 42.7923 38.1035 42.7923 35.2903V29.8802C42.7923 27.067 40.5035 24.7783 37.6904 24.7783ZM40.2924 35.2903C40.2924 36.7251 39.1251 37.8924 37.6904 37.8924C36.2556 37.8924 35.0883 36.7251 35.0883 35.2903V29.8802C35.0883 28.4454 36.2556 27.2781 37.6904 27.2781C39.1251 27.2781 40.2924 28.4454 40.2924 29.8802V35.2903Z" fill="#33AB5F"/>
<path d="M25.7597 37.9303C24.7485 37.9303 23.8808 37.1771 23.7415 36.1779C23.7285 36.0842 23.7217 35.988 23.7217 35.8922C23.7217 35.2018 23.1621 34.6423 22.4718 34.6423C21.7815 34.6423 21.2219 35.2018 21.2219 35.8922C21.2219 36.1033 21.2366 36.3158 21.2656 36.5235C21.5764 38.7506 23.5085 40.43 25.7598 40.43C28.262 40.43 30.2978 38.3942 30.2978 35.8922C30.2978 34.5991 29.7532 33.4316 28.8825 32.6041C29.7532 31.7768 30.2978 30.6093 30.2978 29.3161C30.2978 26.8139 28.262 24.7783 25.7598 24.7783C23.5962 24.7783 21.7236 26.3175 21.3071 28.4379C21.1741 29.1153 21.6154 29.7722 22.2927 29.9053C22.97 30.0381 23.627 29.5971 23.7601 28.9198C23.947 27.9686 24.7879 27.2781 25.7598 27.2781C26.8836 27.2781 27.7979 28.1923 27.7979 29.3161C27.7979 30.4399 26.8837 31.3542 25.7598 31.3542C25.0695 31.3542 24.5099 31.9138 24.5099 32.6041C24.5099 33.2945 25.0695 33.8541 25.7598 33.8541C26.8836 33.8541 27.7979 34.7682 27.7979 35.8922C27.7978 37.0161 26.8835 37.9303 25.7597 37.9303Z" fill="#33AB5F"/>
<path d="M0.0995049 38.8805C0.403484 39.6878 1.54578 39.9135 2.13686 39.2867C2.84019 38.6054 2.46196 37.3523 1.49691 37.1781C0.540974 36.969 -0.293467 37.9835 0.0995049 38.8805Z" fill="#33AB5F"/>
</svg>
