<svg width="14" height="14" viewBox="0 0 14 14" fill="none" xmlns="http://www.w3.org/2000/svg">
<path d="M4.375 5.25C4.375 4.78516 4.75781 4.375 5.25 4.375C5.71484 4.375 6.125 4.78516 6.125 5.25C6.125 5.74219 5.71484 6.125 5.25 6.125C4.75781 6.125 4.375 5.74219 4.375 5.25ZM9.625 8.75C9.625 9.24219 9.21484 9.625 8.75 9.625C8.25781 9.625 7.875 9.24219 7.875 8.75C7.875 8.28516 8.25781 7.875 8.75 7.875C9.21484 7.875 9.625 8.28516 9.625 8.75ZM5.6875 9.21484C5.44141 9.48828 5.03125 9.48828 4.78516 9.21484C4.51172 8.96875 4.51172 8.55859 4.78516 8.28516L8.28516 4.78516C8.53125 4.53906 8.94141 4.53906 9.1875 4.78516C9.46094 5.05859 9.46094 5.46875 9.1875 5.71484L5.6875 9.21484ZM9.40625 1.20312C10.3086 1.09375 11.2383 1.36719 11.9492 2.05078C12.6328 2.76172 12.9062 3.69141 12.7969 4.59375C13.5078 5.16797 14 6.04297 14 7C14 7.98438 13.5078 8.85938 12.7969 9.43359C12.9062 10.3086 12.6328 11.2656 11.9492 11.9492C11.2383 12.6602 10.3086 12.9336 9.40625 12.8242C8.83203 13.5352 7.95703 14 7 14C6.01562 14 5.14062 13.5352 4.56641 12.8242C3.66406 12.9336 2.73438 12.6602 2.02344 11.9492C1.33984 11.2656 1.06641 10.3086 1.17578 9.43359C0.464844 8.85938 0 7.98438 0 7C0 6.04297 0.464844 5.16797 1.17578 4.59375C1.06641 3.69141 1.33984 2.76172 2.02344 2.05078C2.73438 1.36719 3.66406 1.09375 4.56641 1.20312C5.14062 0.492188 6.01562 0 7 0C7.95703 0 8.83203 0.492188 9.40625 1.20312ZM5.19531 2.73438L4.70312 2.57031C4.10156 2.37891 3.41797 2.51562 2.95312 2.98047C2.48828 3.44531 2.35156 4.12891 2.54297 4.70312L2.70703 5.22266L2.21484 5.49609C1.66797 5.76953 1.3125 6.34375 1.3125 7C1.3125 7.68359 1.66797 8.25781 2.21484 8.53125L2.70703 8.77734L2.54297 9.29688C2.35156 9.89844 2.48828 10.5547 2.95312 11.0469C3.41797 11.5117 4.10156 11.6484 4.70312 11.457L5.19531 11.293L5.46875 11.7852C5.74219 12.332 6.31641 12.6875 7 12.6875C7.65625 12.6875 8.23047 12.332 8.50391 11.7852L8.77734 11.293L9.26953 11.457C9.87109 11.6484 10.5547 11.5117 11.0195 11.0469C11.4844 10.5547 11.6211 9.89844 11.4297 9.29688L11.2656 8.77734L11.7578 8.53125C12.3047 8.25781 12.6875 7.68359 12.6875 7C12.6875 6.34375 12.3047 5.76953 11.7578 5.49609L11.2656 5.22266L11.4297 4.70312C11.6211 4.12891 11.4844 3.44531 11.0195 2.98047C10.5547 2.51562 9.87109 2.37891 9.26953 2.57031L8.77734 2.73438L8.50391 2.24219C8.23047 1.69531 7.65625 1.3125 7 1.3125C6.31641 1.3125 5.74219 1.69531 5.46875 2.24219L5.19531 2.73438Z" fill="#26934E"/>
</svg>
