<svg width="10" height="12" viewBox="0 0 10 12" fill="none" xmlns="http://www.w3.org/2000/svg">
<path d="M8.95312 4.05469C9.04688 4.24219 9.02344 4.47656 8.90625 4.64062L4.03125 11.7656C3.9375 11.9297 3.75 12 3.58594 12C3.49219 12 3.42188 12 3.35156 11.9531C3.09375 11.8359 2.97656 11.5781 3.02344 11.3203L4.00781 6.75H0.585938C0.421875 6.75 0.257812 6.67969 0.140625 6.5625C0.046875 6.44531 0 6.28125 0.0234375 6.11719L0.773438 0.492188C0.796875 0.210938 1.03125 0 1.33594 0H5.46094C5.625 0 5.8125 0.09375 5.90625 0.257812C6.02344 0.421875 6.04688 0.609375 5.97656 0.773438L4.78125 3.75H8.46094C8.64844 3.75 8.85938 3.86719 8.95312 4.05469Z" fill="white"/>
</svg>
