<svg width="23" height="15" viewBox="0 0 23 15" fill="none" xmlns="http://www.w3.org/2000/svg">
<path d="M21.7578 1.52344C22.2266 1.79688 22.5 2.30469 22.5 2.8125V12.1875C22.5 12.7344 22.2266 13.2422 21.7578 13.5156C21.5234 13.6719 21.2109 13.7891 20.8984 13.7891C20.7031 13.7891 20.4688 13.7109 20.2734 13.6328L16.25 11.7578V12.5C16.25 13.9062 15.1172 15 13.75 15H2.5C1.09375 15 0 13.9062 0 12.5V2.5C0 1.13281 1.09375 0 2.5 0H13.75C15.1172 0 16.25 1.13281 16.25 2.5V3.24219L20.2734 1.40625C20.7422 1.17188 21.3281 1.21094 21.7578 1.52344ZM14.375 12.5V2.5C14.375 2.1875 14.0625 1.875 13.75 1.875H2.5C2.14844 1.875 1.875 2.1875 1.875 2.5V12.5C1.875 12.8516 2.14844 13.125 2.5 13.125H13.75C14.0625 13.125 14.375 12.8516 14.375 12.5ZM20.625 11.7188V3.32031L16.25 5.3125V9.72656L20.625 11.7188Z" fill="#181818"/>
</svg>
