<svg width="28" height="28" viewBox="0 0 28 28" fill="none" xmlns="http://www.w3.org/2000/svg">
<g filter="url(#filter0_d_2001_1906)">
<g clip-path="url(#clip0_2001_1906)">
<path d="M18.5892 11.9226L18.5817 11.9851C16.7492 11.0717 16.5575 10.9501 16.3208 11.3051C16.1567 11.5509 15.6783 12.1084 15.5342 12.2734C15.3883 12.4359 15.2433 12.4484 14.9958 12.3359C14.7458 12.2109 13.9433 11.9484 12.9933 11.0984C12.2533 10.4359 11.7567 9.62339 11.61 9.37339C11.3658 8.95173 11.8767 8.89173 12.3417 8.01173C12.425 7.83673 12.3825 7.69923 12.3208 7.57506C12.2583 7.45006 11.7608 6.22506 11.5525 5.73673C11.3525 5.25006 11.1467 5.31173 10.9925 5.31173C10.5125 5.27006 10.1617 5.27673 9.85249 5.59839C8.50749 7.07673 8.84666 8.60173 9.99749 10.2234C12.2592 13.1834 13.4642 13.7284 15.6675 14.4851C16.2625 14.6742 16.805 14.6476 17.2342 14.5859C17.7125 14.5101 18.7067 13.9851 18.9142 13.3976C19.1267 12.8101 19.1267 12.3226 19.0642 12.2101C19.0025 12.0976 18.8392 12.0351 18.5892 11.9226Z" fill="white"/>
<path d="M21.1 2.87404C14.6925 -3.32013 4.08833 1.17237 4.08417 9.91071C4.08417 11.6574 4.54167 13.3607 5.41333 14.8649L4 19.9999L9.27917 18.6232C15.8667 22.1815 23.9967 17.4565 24 9.91571C24 7.26904 22.9667 4.77821 21.0875 2.90654L21.1 2.87404ZM22.335 9.88821C22.33 16.249 15.3475 20.2215 9.825 16.9749L9.525 16.7965L6.4 17.609L7.2375 14.5715L7.03833 14.259C3.60167 8.78821 7.55 1.63821 14.06 1.63821C16.2717 1.63821 18.3475 2.50071 19.9108 4.06321C21.4733 5.61237 22.335 7.68821 22.335 9.88821Z" fill="white"/>
</g>
</g>
<defs>
<filter id="filter0_d_2001_1906" x="0" y="0" width="28" height="28" filterUnits="userSpaceOnUse" color-interpolation-filters="sRGB">
<feFlood flood-opacity="0" result="BackgroundImageFix"/>
<feColorMatrix in="SourceAlpha" type="matrix" values="0 0 0 0 0 0 0 0 0 0 0 0 0 0 0 0 0 0 127 0" result="hardAlpha"/>
<feOffset dy="4"/>
<feGaussianBlur stdDeviation="2"/>
<feComposite in2="hardAlpha" operator="out"/>
<feColorMatrix type="matrix" values="0 0 0 0 0 0 0 0 0 0 0 0 0 0 0 0 0 0 0.25 0"/>
<feBlend mode="normal" in2="BackgroundImageFix" result="effect1_dropShadow_2001_1906"/>
<feBlend mode="normal" in="SourceGraphic" in2="effect1_dropShadow_2001_1906" result="shape"/>
</filter>
<clipPath id="clip0_2001_1906">
<rect width="20" height="20" fill="white" transform="translate(4)"/>
</clipPath>
</defs>
</svg>
