<svg width="32" height="32" viewBox="0 0 32 32" fill="none" xmlns="http://www.w3.org/2000/svg">
<path d="M30.08 16.3334C30.08 15.2934 29.9867 14.2934 29.8133 13.3334H16V19.0067H23.8933C23.5533 20.84 22.52 22.3934 20.9667 23.4334V27.1134H25.7067C28.48 24.56 30.08 20.8 30.08 16.3334Z" fill="#4285F4"/>
<path d="M16 30.6666C19.96 30.6666 23.28 29.3533 25.7067 27.1133L20.9667 23.4333C19.6533 24.3133 17.9733 24.8333 16 24.8333C12.18 24.8333 8.94667 22.2533 7.79334 18.7866H2.89334V22.5866C5.30667 27.38 10.2667 30.6666 16 30.6666Z" fill="#34A853"/>
<path d="M7.79333 18.7867C7.5 17.9067 7.33333 16.9667 7.33333 16C7.33333 15.0333 7.5 14.0933 7.79333 13.2133V9.41333H2.89333C1.86666 11.4571 1.33242 13.7128 1.33333 16C1.33333 18.3667 1.9 20.6067 2.89333 22.5867L7.79333 18.7867Z" fill="#FBBC05"/>
<path d="M16 7.16671C18.1533 7.16671 20.0867 7.90671 21.6067 9.36004L25.8133 5.15337C23.2733 2.78671 19.9533 1.33337 16 1.33337C10.2667 1.33337 5.30667 4.62004 2.89334 9.41337L7.79334 13.2134C8.94667 9.74671 12.18 7.16671 16 7.16671Z" fill="#EA4335"/>
</svg>
